<?xml version="1.0" encoding="utf-8"?>
<!-- Generator: Adobe Illustrator 21.0.2, SVG Export Plug-In . SVG Version: 6.00 Build 0)  -->
<svg version="1.1" id="Layer_1" xmlns="http://www.w3.org/2000/svg" xmlns:xlink="http://www.w3.org/1999/xlink" x="0px" y="0px"
	 viewBox="0 0 80 200" style="enable-background:new 0 0 80 200;" xml:space="preserve">
<path d="M41.6,199.2L79.7,144c0.4-0.6,0.4-1.3,0.1-2c-0.3-0.6-1-1-1.7-1H1.9c-0.7,0-1.4,0.4-1.7,1c-0.1,0.3-0.2,0.6-0.2,0.9
	c0,0.4,0.1,0.8,0.3,1.1l38.1,55.2c0.4,0.5,0.9,0.8,1.6,0.8S41.2,199.7,41.6,199.2z"/>
<path d="M40,0c-0.6,0-1.2,0.3-1.6,0.8L0.3,56C0.1,56.3,0,56.7,0,57.1c0,0.3,0.1,0.6,0.2,0.9c0.3,0.6,1,1,1.7,1h76.2
	c0.7,0,1.4-0.4,1.7-1c0.3-0.6,0.3-1.4-0.1-2L41.6,0.8C41.2,0.3,40.6,0,40,0z"/>
</svg>
