<svg xmlns="http://www.w3.org/2000/svg" xmlns:xlink="http://www.w3.org/1999/xlink"><symbol id="arrow-next" viewBox="0 0 31.5 22.1">
<path d="M31.2,10.3c0.4,0.4,0.4,1.1,0,1.6l-10,10c-0.4,0.4-1.1,0.4-1.6,0c-0.4-0.4-0.4-1.1,0-1.6l8-8H1.1c-0.6,0-1.1-0.5-1.1-1.1
	S0.5,10,1.1,10h26.6l-8-8c-0.4-0.4-0.4-1.1,0-1.6c0.4-0.4,1.1-0.4,1.6,0L31.2,10.3z"/>
</symbol><symbol id="arrows" viewBox="0 0 80 200">
<path d="M41.6,199.2L79.7,144c0.4-0.6,0.4-1.3,0.1-2c-0.3-0.6-1-1-1.7-1H1.9c-0.7,0-1.4,0.4-1.7,1c-0.1,0.3-0.2,0.6-0.2,0.9
	c0,0.4,0.1,0.8,0.3,1.1l38.1,55.2c0.4,0.5,0.9,0.8,1.6,0.8S41.2,199.7,41.6,199.2z"/>
<path d="M40,0c-0.6,0-1.2,0.3-1.6,0.8L0.3,56C0.1,56.3,0,56.7,0,57.1c0,0.3,0.1,0.6,0.2,0.9c0.3,0.6,1,1,1.7,1h76.2
	c0.7,0,1.4-0.4,1.7-1c0.3-0.6,0.3-1.4-0.1-2L41.6,0.8C41.2,0.3,40.6,0,40,0z"/>
</symbol><symbol id="calendar" viewBox="0 0 475.1 511.6">
<g>
	<path d="M464.2,83.9c-7.2-7.2-15.8-10.8-25.7-10.8H402V45.7c0-12.6-4.5-23.3-13.4-32.3C379.6,4.5,368.9,0,356.3,0H338
		c-12.6,0-23.3,4.5-32.3,13.4c-8.9,8.9-13.4,19.7-13.4,32.3v27.4H182.7V45.7c0-12.6-4.5-23.3-13.4-32.3C160.4,4.5,149.6,0,137,0
		h-18.3c-12.6,0-23.3,4.5-32.3,13.4C77.5,22.3,73,33.1,73,45.7v27.4H36.5c-9.9,0-18.5,3.6-25.7,10.8C3.6,91.2,0,99.7,0,109.6v365.5
		c0,9.9,3.6,18.5,10.9,25.7c7.2,7.2,15.8,10.8,25.7,10.8h402c9.9,0,18.5-3.6,25.7-10.8c7.2-7.2,10.9-15.8,10.9-25.7V109.6
		C475.1,99.7,471.5,91.2,464.2,83.9z M328.9,45.7c0-2.7,0.8-4.9,2.6-6.6c1.7-1.7,3.9-2.6,6.6-2.6h18.3c2.7,0,4.9,0.9,6.6,2.6
		c1.7,1.7,2.6,3.9,2.6,6.6v82.2c0,2.7-0.9,4.9-2.6,6.6c-1.7,1.7-3.9,2.6-6.6,2.6H338c-2.7,0-4.9-0.9-6.6-2.6
		c-1.7-1.7-2.6-3.9-2.6-6.6V45.7H328.9z M109.6,45.7c0-2.7,0.9-4.9,2.6-6.6c1.7-1.7,3.9-2.6,6.6-2.6H137c2.7,0,4.9,0.9,6.6,2.6
		c1.7,1.7,2.6,3.9,2.6,6.6v82.2c0,2.7-0.9,4.9-2.6,6.6c-1.7,1.7-3.9,2.6-6.6,2.6h-18.3c-2.7,0-4.9-0.9-6.6-2.6
		c-1.7-1.7-2.6-3.9-2.6-6.6L109.6,45.7L109.6,45.7z M438.5,475.1h-402V182.7h402V475.1z"/>
</g>
</symbol><symbol id="facebook" viewBox="0 0 200.7 430.1">
<g>
	<path id="Facebook" d="M43.4,83.3c0,10.8,0,59.2,0,59.2H0v72.4h43.4v215.2h89.1V214.9h59.8c0,0,5.6-34.7,8.3-72.7
		c-7.8,0-67.8,0-67.8,0s0-42.1,0-49.5s9.7-17.4,19.3-17.4s29.8,0,48.6,0c0-9.9,0-43.9,0-75.4c-25,0-53.5,0-66,0
		C41.2,0,43.4,72.5,43.4,83.3z"/>
</g>
</symbol><symbol id="insta" viewBox="0 0 169.063 169.063">
<g>
	<path d="M122.406,0H46.654C20.929,0,0,20.93,0,46.655v75.752c0,25.726,20.929,46.655,46.654,46.655h75.752
		c25.727,0,46.656-20.93,46.656-46.655V46.655C169.063,20.93,148.133,0,122.406,0z M154.063,122.407
		c0,17.455-14.201,31.655-31.656,31.655H46.654C29.2,154.063,15,139.862,15,122.407V46.655C15,29.201,29.2,15,46.654,15h75.752
		c17.455,0,31.656,14.201,31.656,31.655V122.407z"/>
	<path d="M84.531,40.97c-24.021,0-43.563,19.542-43.563,43.563c0,24.02,19.542,43.561,43.563,43.561s43.563-19.541,43.563-43.561
		C128.094,60.512,108.552,40.97,84.531,40.97z M84.531,113.093c-15.749,0-28.563-12.812-28.563-28.561
		c0-15.75,12.813-28.563,28.563-28.563s28.563,12.813,28.563,28.563C113.094,100.281,100.28,113.093,84.531,113.093z"/>
	<path d="M129.921,28.251c-2.89,0-5.729,1.17-7.77,3.22c-2.051,2.04-3.23,4.88-3.23,7.78c0,2.891,1.18,5.73,3.23,7.78
		c2.04,2.04,4.88,3.22,7.77,3.22c2.9,0,5.73-1.18,7.78-3.22c2.05-2.05,3.22-4.89,3.22-7.78c0-2.9-1.17-5.74-3.22-7.78
		C135.661,29.421,132.821,28.251,129.921,28.251z"/>
</g>
<g>
</g>
<g>
</g>
<g>
</g>
<g>
</g>
<g>
</g>
<g>
</g>
<g>
</g>
<g>
</g>
<g>
</g>
<g>
</g>
<g>
</g>
<g>
</g>
<g>
</g>
<g>
</g>
<g>
</g>
</symbol><symbol id="phone" viewBox="0 0 482.6 482.6">
<g>
	<path d="M98.339,320.8c47.6,56.9,104.9,101.7,170.3,133.4c24.9,11.8,58.2,25.8,95.3,28.2c2.3,0.1,4.5,0.2,6.8,0.2
		c24.9,0,44.9-8.6,61.2-26.3c0.1-0.1,0.3-0.3,0.4-0.5c5.8-7,12.4-13.3,19.3-20c4.7-4.5,9.5-9.2,14.1-14
		c21.3-22.2,21.3-50.4-0.2-71.9l-60.1-60.1c-10.2-10.6-22.4-16.2-35.2-16.2c-12.8,0-25.1,5.6-35.6,16.1l-35.8,35.8
		c-3.3-1.9-6.7-3.6-9.9-5.2c-4-2-7.7-3.9-11-6c-32.6-20.7-62.2-47.7-90.5-82.4c-14.3-18.1-23.9-33.3-30.6-48.8
		c9.4-8.5,18.2-17.4,26.7-26.1c3-3.1,6.1-6.2,9.2-9.3c10.8-10.8,16.6-23.3,16.6-36s-5.7-25.2-16.6-36l-29.8-29.8
		c-3.5-3.5-6.8-6.9-10.2-10.4c-6.6-6.8-13.5-13.8-20.3-20.1c-10.3-10.1-22.4-15.4-35.2-15.4c-12.7,0-24.9,5.3-35.6,15.5l-37.4,37.4
		c-13.6,13.6-21.3,30.1-22.9,49.2c-1.9,23.9,2.5,49.3,13.9,80C32.739,229.6,59.139,273.7,98.339,320.8z M25.739,104.2
		c1.2-13.3,6.3-24.4,15.9-34l37.2-37.2c5.8-5.6,12.2-8.5,18.4-8.5c6.1,0,12.3,2.9,18,8.7c6.7,6.2,13,12.7,19.8,19.6
		c3.4,3.5,6.9,7,10.4,10.6l29.8,29.8c6.2,6.2,9.4,12.5,9.4,18.7s-3.2,12.5-9.4,18.7c-3.1,3.1-6.2,6.3-9.3,9.4
		c-9.3,9.4-18,18.3-27.6,26.8c-0.2,0.2-0.3,0.3-0.5,0.5c-8.3,8.3-7,16.2-5,22.2c0.1,0.3,0.2,0.5,0.3,0.8
		c7.7,18.5,18.4,36.1,35.1,57.1c30,37,61.6,65.7,96.4,87.8c4.3,2.8,8.9,5,13.2,7.2c4,2,7.7,3.9,11,6c0.4,0.2,0.7,0.4,1.1,0.6
		c3.3,1.7,6.5,2.5,9.7,2.5c8,0,13.2-5.1,14.9-6.8l37.4-37.4c5.8-5.8,12.1-8.9,18.3-8.9c7.6,0,13.8,4.7,17.7,8.9l60.3,60.2
		c12,12,11.9,25-0.3,37.7c-4.2,4.5-8.6,8.8-13.3,13.3c-7,6.8-14.3,13.8-20.9,21.7c-11.5,12.4-25.2,18.2-42.9,18.2
		c-1.7,0-3.5-0.1-5.2-0.2c-32.8-2.1-63.3-14.9-86.2-25.8c-62.2-30.1-116.8-72.8-162.1-127c-37.3-44.9-62.4-86.7-79-131.5
		C28.039,146.4,24.139,124.3,25.739,104.2z"/>
</g>
<g>
</g>
<g>
</g>
<g>
</g>
<g>
</g>
<g>
</g>
<g>
</g>
<g>
</g>
<g>
</g>
<g>
</g>
<g>
</g>
<g>
</g>
<g>
</g>
<g>
</g>
<g>
</g>
<g>
</g>
</symbol><symbol id="twitter" viewBox="0 0 410.2 341.2">
<path d="M403.6,39.7c-9.1,4-18.6,7.2-28.3,9.5C386,39,394,26.3,398.6,12.1l0,0c1.3-4.1-3.1-7.6-6.8-5.4l0,0c-13.5,8-28,14-43.2,17.9
	c-0.9,0.2-1.8,0.3-2.7,0.3c-2.8,0-5.5-1-7.6-2.9C322.2,7.8,301.4,0,279.8,0c-9.3,0-18.8,1.5-28,4.3C223.2,13.2,201,36.9,194.1,66
	c-2.6,10.9-3.3,21.9-2.1,32.6c0.1,1.2-0.4,2.1-0.8,2.5c-0.6,0.7-1.5,1.1-2.4,1.1c-0.1,0-0.2,0-0.3,0C125.7,96.4,69.1,66.1,29.1,17
	l0,0c-2-2.5-6-2.2-7.6,0.6l0,0c-7.8,13.4-12,28.8-12,44.5c0,24,9.6,46.6,26.4,63c-7-1.7-13.8-4.3-20.2-7.8l0,0
	c-3.1-1.7-6.8,0.5-6.9,4l0,0c-0.4,35.6,20.4,67.3,51.6,81.6c-0.6,0-1.3,0-1.9,0c-5,0-10-0.5-14.9-1.4l0,0c-3.4-0.7-6.3,2.6-5.3,6
	l0,0c10.1,31.7,37.4,55,70,60.3c-27.1,18.2-58.6,27.8-91.4,27.8H6.7c-3.2,0-5.8,2.1-6.6,5.1s0.7,6.2,3.4,7.7
	c37,21.5,79.1,32.9,122,32.9c37.5,0,72.5-7.4,104.2-22.1c29-13.4,54.7-32.7,76.3-57.1c20.1-22.8,35.8-49.1,46.7-78.2
	c10.4-27.7,15.9-57.3,15.9-85.6V97c0-4.5,2.1-8.8,5.6-11.7c13.6-11,25.4-24,35.2-38.6l0,0C411.9,42.6,407.9,37.8,403.6,39.7
	L403.6,39.7z"/>
</symbol></svg>