<svg xmlns="http://www.w3.org/2000/svg"><symbol id="arrow-next" viewBox="0 0 31.5 22.1"><path d="M31.2 10.3c.4.4.4 1.1 0 1.6l-10 10c-.4.4-1.1.4-1.6 0-.4-.4-.4-1.1 0-1.6l8-8H1.1c-.6 0-1.1-.5-1.1-1.1S.5 10 1.1 10h26.6l-8-8c-.4-.4-.4-1.1 0-1.6.4-.4 1.1-.4 1.6 0l9.9 9.9z"/></symbol><symbol id="arrows" viewBox="0 0 80 200"><path d="M41.6 199.2L79.7 144c.4-.6.4-1.3.1-2-.3-.6-1-1-1.7-1H1.9c-.7 0-1.4.4-1.7 1-.1.3-.2.6-.2.9 0 .4.1.8.3 1.1l38.1 55.2c.4.5.9.8 1.6.8s1.2-.3 1.6-.8zM40 0c-.6 0-1.2.3-1.6.8L.3 56c-.2.3-.3.7-.3 1.1 0 .3.1.6.2.9.3.6 1 1 1.7 1h76.2c.7 0 1.4-.4 1.7-1 .3-.6.3-1.4-.1-2L41.6.8c-.4-.5-1-.8-1.6-.8z"/></symbol><symbol id="calendar" viewBox="0 0 475.1 511.6"><path d="M464.2 83.9c-7.2-7.2-15.8-10.8-25.7-10.8H402V45.7c0-12.6-4.5-23.3-13.4-32.3-9-8.9-19.7-13.4-32.3-13.4H338c-12.6 0-23.3 4.5-32.3 13.4-8.9 8.9-13.4 19.7-13.4 32.3v27.4H182.7V45.7c0-12.6-4.5-23.3-13.4-32.3C160.4 4.5 149.6 0 137 0h-18.3c-12.6 0-23.3 4.5-32.3 13.4C77.5 22.3 73 33.1 73 45.7v27.4H36.5c-9.9 0-18.5 3.6-25.7 10.8C3.6 91.2 0 99.7 0 109.6v365.5c0 9.9 3.6 18.5 10.9 25.7 7.2 7.2 15.8 10.8 25.7 10.8h402c9.9 0 18.5-3.6 25.7-10.8 7.2-7.2 10.9-15.8 10.9-25.7V109.6c-.1-9.9-3.7-18.4-11-25.7zM328.9 45.7c0-2.7.8-4.9 2.6-6.6 1.7-1.7 3.9-2.6 6.6-2.6h18.3c2.7 0 4.9.9 6.6 2.6 1.7 1.7 2.6 3.9 2.6 6.6v82.2c0 2.7-.9 4.9-2.6 6.6-1.7 1.7-3.9 2.6-6.6 2.6H338c-2.7 0-4.9-.9-6.6-2.6-1.7-1.7-2.6-3.9-2.6-6.6V45.7h.1zm-219.3 0c0-2.7.9-4.9 2.6-6.6 1.7-1.7 3.9-2.6 6.6-2.6H137c2.7 0 4.9.9 6.6 2.6 1.7 1.7 2.6 3.9 2.6 6.6v82.2c0 2.7-.9 4.9-2.6 6.6-1.7 1.7-3.9 2.6-6.6 2.6h-18.3c-2.7 0-4.9-.9-6.6-2.6-1.7-1.7-2.6-3.9-2.6-6.6l.1-82.2zm328.9 429.4h-402V182.7h402v292.4z"/></symbol><symbol id="facebook" viewBox="0 0 200.7 430.1"><path id="Facebook" d="M43.4 83.3v59.2H0v72.4h43.4v215.2h89.1V214.9h59.8s5.6-34.7 8.3-72.7h-67.8V92.7c0-7.4 9.7-17.4 19.3-17.4h48.6V-.1h-66C41.2 0 43.4 72.5 43.4 83.3z"/></symbol><symbol id="insta" viewBox="0 0 169.063 169.063"><path d="M122.406 0H46.654C20.929 0 0 20.93 0 46.655v75.752c0 25.726 20.929 46.655 46.654 46.655h75.752c25.727 0 46.656-20.93 46.656-46.655V46.655C169.063 20.93 148.133 0 122.406 0zm31.657 122.407c0 17.455-14.201 31.655-31.656 31.655H46.654C29.2 154.063 15 139.862 15 122.407V46.655C15 29.201 29.2 15 46.654 15h75.752c17.455 0 31.656 14.201 31.656 31.655v75.752z"/><path d="M84.531 40.97c-24.021 0-43.563 19.542-43.563 43.563 0 24.02 19.542 43.561 43.563 43.561s43.563-19.541 43.563-43.561c0-24.021-19.542-43.563-43.563-43.563zm0 72.123c-15.749 0-28.563-12.812-28.563-28.561 0-15.75 12.813-28.563 28.563-28.563s28.563 12.813 28.563 28.563c0 15.749-12.814 28.561-28.563 28.561zm45.39-84.842c-2.89 0-5.729 1.17-7.77 3.22a11.053 11.053 0 0 0-3.23 7.78c0 2.891 1.18 5.73 3.23 7.78 2.04 2.04 4.88 3.22 7.77 3.22 2.9 0 5.73-1.18 7.78-3.22 2.05-2.05 3.22-4.89 3.22-7.78 0-2.9-1.17-5.74-3.22-7.78-2.04-2.05-4.88-3.22-7.78-3.22z"/></symbol><symbol id="phone" viewBox="0 0 482.6 482.6"><path d="M98.339 320.8c47.6 56.9 104.9 101.7 170.3 133.4 24.9 11.8 58.2 25.8 95.3 28.2 2.3.1 4.5.2 6.8.2 24.9 0 44.9-8.6 61.2-26.3.1-.1.3-.3.4-.5 5.8-7 12.4-13.3 19.3-20 4.7-4.5 9.5-9.2 14.1-14 21.3-22.2 21.3-50.4-.2-71.9l-60.1-60.1c-10.2-10.6-22.4-16.2-35.2-16.2-12.8 0-25.1 5.6-35.6 16.1l-35.8 35.8c-3.3-1.9-6.7-3.6-9.9-5.2-4-2-7.7-3.9-11-6-32.6-20.7-62.2-47.7-90.5-82.4-14.3-18.1-23.9-33.3-30.6-48.8 9.4-8.5 18.2-17.4 26.7-26.1 3-3.1 6.1-6.2 9.2-9.3 10.8-10.8 16.6-23.3 16.6-36s-5.7-25.2-16.6-36l-29.8-29.8c-3.5-3.5-6.8-6.9-10.2-10.4-6.6-6.8-13.5-13.8-20.3-20.1-10.3-10.1-22.4-15.4-35.2-15.4-12.7 0-24.9 5.3-35.6 15.5l-37.4 37.4c-13.6 13.6-21.3 30.1-22.9 49.2-1.9 23.9 2.5 49.3 13.9 80 17.5 47.5 43.9 91.6 83.1 138.7zm-72.6-216.6c1.2-13.3 6.3-24.4 15.9-34l37.2-37.2c5.8-5.6 12.2-8.5 18.4-8.5 6.1 0 12.3 2.9 18 8.7 6.7 6.2 13 12.7 19.8 19.6 3.4 3.5 6.9 7 10.4 10.6l29.8 29.8c6.2 6.2 9.4 12.5 9.4 18.7s-3.2 12.5-9.4 18.7c-3.1 3.1-6.2 6.3-9.3 9.4-9.3 9.4-18 18.3-27.6 26.8l-.5.5c-8.3 8.3-7 16.2-5 22.2.1.3.2.5.3.8 7.7 18.5 18.4 36.1 35.1 57.1 30 37 61.6 65.7 96.4 87.8 4.3 2.8 8.9 5 13.2 7.2 4 2 7.7 3.9 11 6 .4.2.7.4 1.1.6 3.3 1.7 6.5 2.5 9.7 2.5 8 0 13.2-5.1 14.9-6.8l37.4-37.4c5.8-5.8 12.1-8.9 18.3-8.9 7.6 0 13.8 4.7 17.7 8.9l60.3 60.2c12 12 11.9 25-.3 37.7-4.2 4.5-8.6 8.8-13.3 13.3-7 6.8-14.3 13.8-20.9 21.7-11.5 12.4-25.2 18.2-42.9 18.2-1.7 0-3.5-.1-5.2-.2-32.8-2.1-63.3-14.9-86.2-25.8-62.2-30.1-116.8-72.8-162.1-127-37.3-44.9-62.4-86.7-79-131.5-10.3-27.5-14.2-49.6-12.6-69.7z"/></symbol><symbol id="twitter" viewBox="0 0 410.2 341.2"><path d="M403.6 39.7c-9.1 4-18.6 7.2-28.3 9.5C386 39 394 26.3 398.6 12.1c1.3-4.1-3.1-7.6-6.8-5.4-13.5 8-28 14-43.2 17.9-.9.2-1.8.3-2.7.3-2.8 0-5.5-1-7.6-2.9-16.1-14.2-36.9-22-58.5-22-9.3 0-18.8 1.5-28 4.3-28.6 8.9-50.8 32.6-57.7 61.7-2.6 10.9-3.3 21.9-2.1 32.6.1 1.2-.4 2.1-.8 2.5-.6.7-1.5 1.1-2.4 1.1h-.3C125.7 96.4 69.1 66.1 29.1 17c-2-2.5-6-2.2-7.6.6-7.8 13.4-12 28.8-12 44.5 0 24 9.6 46.6 26.4 63-7-1.7-13.8-4.3-20.2-7.8-3.1-1.7-6.8.5-6.9 4-.4 35.6 20.4 67.3 51.6 81.6h-1.9c-5 0-10-.5-14.9-1.4-3.4-.7-6.3 2.6-5.3 6 10.1 31.7 37.4 55 70 60.3-27.1 18.2-58.6 27.8-91.4 27.8H6.7c-3.2 0-5.8 2.1-6.6 5.1s.7 6.2 3.4 7.7c37 21.5 79.1 32.9 122 32.9 37.5 0 72.5-7.4 104.2-22.1 29-13.4 54.7-32.7 76.3-57.1 20.1-22.8 35.8-49.1 46.7-78.2 10.4-27.7 15.9-57.3 15.9-85.6V97c0-4.5 2.1-8.8 5.6-11.7 13.6-11 25.4-24 35.2-38.6 2.5-4.1-1.5-8.9-5.8-7z"/></symbol></svg>