<svg version="1.1" id="Слой_1" xmlns="http://www.w3.org/2000/svg" x="0" y="0" viewBox="0 0 493.2 175.5" xml:space="preserve"><path fill="#FF2D3A" d="M94.8 124.8c-13.3 21.6-25.5 36.2-30 39.9-4.5-3.6-16.5-17.9-30-39.8-15.6-25.4-24.5-47.2-24.5-60 0-30.1 24.5-54.6 54.6-54.6 16.2 0 30.8 7.1 40.8 18.3h13C107 11.4 87.3 0 64.9 0 29.1 0 0 29.1 0 64.9c0 20.6 17.3 51.4 27.6 67.9 6.8 10.9 14.1 21.2 20.5 29 10.4 12.7 14.1 13.7 16.7 13.7 2.7 0 6.2-1.1 16.6-13.7 6.5-7.9 13.8-18.2 20.5-29 2.5-4 5.4-8.8 8.4-14.1H98.5c-1.2 2-2.4 4-3.7 6.1z"/><path d="M65.1 28.6c9.3 0 19.1 2.7 26.4 9.1l-8.1 12.6C79.5 46.7 72.5 44 66.7 44c-14.4 0-20.3 9.2-20.3 19.4 0 13.1 9 20.8 19.7 20.8 5 0 10-1.9 13.9-5v-5.3h-9.7V59.6h24.6v38.8h-14v-1.9c0-1.4.1-2.9.1-2.9h-.2c-4.1 3.6-11.3 6-18.1 6C45.1 99.6 29 86.4 29 64c.1-20 15.1-35.4 36.1-35.4zm62 19.2c14.6 0 22.9 10.2 22.9 23.9 0 1.7-.2 3.5-.4 5.2h-31.2c1.2 6 6.2 8.8 11.5 8.8 4.9 0 9.6-2.3 13.6-5l6.1 11.6c-5.4 4.6-13.5 7.2-21.1 7.2-17.7 0-27.2-12.8-27.2-25.9.1-14.4 9.9-25.8 25.8-25.8zm6.4 19.6c0-4-2.6-7.4-6.8-7.4-4.8 0-7.1 3.5-8 7.4h14.8zm28-4.6h-6.3v-13h6.8V35.6h16.1v14.2h10.4v13h-10.4V78c0 5.6 5.7 6.3 8.8 6.3.6 0 1.2 0 2.2-.1v14.4c-1.2.1-2.6.3-4.5.3-7.9 0-23.1-2.1-23.1-18.7V62.8zm41.3-31.6h19.7c6.2 0 9.4.7 12.1 2 5.6 2.8 9.3 8.5 9.3 16.1 0 9.6-5.6 16.8-13.4 18.5v.2s.7.8 1.5 2.4l15.1 27.9h-4.9l-15.9-29.8H207v29.8h-4.1V31.2h-.1zm22.3 33.6c8.8 0 14.4-6.3 14.4-15.5 0-6-3-10.8-7.9-13-1.9-.9-4-1.3-9.4-1.3h-15.4v29.8h18.3zm52.5-15.5c13.1 0 19.6 10.3 19.6 21.9 0 .8-.1 1.7-.2 2.6h-38.5c0 13.9 9.4 21.9 20.5 21.9 5.4 0 11-2.2 14.9-6l2.2 3.4c-4.2 4-10.9 6.6-17.1 6.6-13.5 0-24.8-9.8-24.8-25.1 0-16.3 11.1-25.3 23.4-25.3zM292.9 70c-.5-11.7-7.5-17-15.5-17-8.8 0-17 5.8-18.7 17h34.2zm17.4-19.6h4v8.5c0 2.2-.4 3.9-.4 3.9h.2c1.6-4.5 8.4-13.5 20.4-13.5 12.5 0 15.8 7.4 15.8 18.7v30.4h-4v-29c0-8.4-1.1-16.2-11.8-16.2-10.9 0-20.2 9-20.2 21.3v23.9h-4v-48zm57.7 4h-6.3v-3.6h6.3V37.2h4v13.6h12.6v3.6H372v26.4c0 12.7 7.6 14.3 11.4 14.3.7 0 1.4 0 2.2-.2v3.7c-.4.1-1.2.2-2.4.2-5 0-15.3-1.8-15.3-17.8l.1-26.6zm26.9 38h5.9v6h-5.9v-6zm21.7-42h4v9.1c0 2.2-.4 3.9-.4 3.9h.2c2.4-7.4 7.8-13.4 15.4-13.4 1 0 1.9.1 2.8.3v4c-.3-.1-1.2-.2-2.2-.2-11.2 0-15.7 13.7-15.7 23.5v20.7h-4l-.1-47.9zm51.7-1.1c13.7 0 24.9 10.9 24.9 24.9 0 14.3-11.1 25.4-24.9 25.4s-24.9-11.1-24.9-25.4c0-14.1 11.1-24.9 24.9-24.9zm0 46.4c11.4 0 20.6-9.3 20.6-21.5 0-11.9-9.2-20.9-20.6-20.9s-20.6 9-20.6 20.9c-.1 12.1 9.1 21.5 20.6 21.5z"/></svg>