<?xml version="1.0" encoding="utf-8"?>
<!-- Generator: Adobe Illustrator 22.1.0, SVG Export Plug-In . SVG Version: 6.00 Build 0)  -->
<svg version="1.1" id="Слой_1" xmlns="http://www.w3.org/2000/svg" xmlns:xlink="http://www.w3.org/1999/xlink" x="0px" y="0px"
	 viewBox="0 0 493.2 175.5" enable-background="new 0 0 493.2 175.5" xml:space="preserve">
<g>
	<path fill="#FF2D3A" d="M94.8,124.8c-13.3,21.6-25.5,36.2-30,39.9c-4.5-3.6-16.5-17.9-30-39.8c-15.6-25.4-24.5-47.2-24.5-60
		c0-30.1,24.5-54.6,54.6-54.6c16.2,0,30.8,7.1,40.8,18.3h13C107,11.4,87.3,0,64.9,0C29.1,0,0,29.1,0,64.9
		c0,20.6,17.3,51.4,27.6,67.9c6.8,10.9,14.1,21.2,20.5,29c10.4,12.7,14.1,13.7,16.7,13.7c2.7,0,6.2-1.1,16.6-13.7
		c6.5-7.9,13.8-18.2,20.5-29c2.5-4,5.4-8.8,8.4-14.1H98.5C97.3,120.7,96.1,122.7,94.8,124.8z"/>
</g>
<g enable-background="new    ">
	<path fill="#FFFFFF" d="M65.1,28.6c9.3,0,19.1,2.7,26.4,9.1l-8.1,12.6C79.5,46.7,72.5,44,66.7,44c-14.4,0-20.3,9.2-20.3,19.4
		c0,13.1,9,20.8,19.7,20.8c5,0,10-1.9,13.9-5v-5.3h-9.7V59.6h24.6v38.8h-14v-1.9c0-1.4,0.1-2.9,0.1-2.9h-0.2c-4.1,3.6-11.3,6-18.1,6
		C45.1,99.6,29,86.4,29,64C29.1,44,44.1,28.6,65.1,28.6z"/>
</g>
<g enable-background="new    ">
	<path fill="#FFFFFF" d="M127.1,47.8c14.6,0,22.9,10.2,22.9,23.9c0,1.7-0.2,3.5-0.4,5.2h-31.2c1.2,6,6.2,8.8,11.5,8.8
		c4.9,0,9.6-2.3,13.6-5l6.1,11.6c-5.4,4.6-13.5,7.2-21.1,7.2c-17.7,0-27.2-12.8-27.2-25.9C101.4,59.2,111.2,47.8,127.1,47.8z
		 M133.5,67.4c0-4-2.6-7.4-6.8-7.4c-4.8,0-7.1,3.5-8,7.4H133.5z"/>
	<path fill="#FFFFFF" d="M161.5,62.8h-6.3v-13h6.8V35.6h16.1v14.2h10.4v13h-10.4V78c0,5.6,5.7,6.3,8.8,6.3c0.6,0,1.2,0,2.2-0.1v14.4
		c-1.2,0.1-2.6,0.3-4.5,0.3c-7.9,0-23.1-2.1-23.1-18.7V62.8z"/>
</g>
<g enable-background="new    ">
	<path fill="#FFFFFF" d="M202.8,31.2h19.7c6.2,0,9.4,0.7,12.1,2c5.6,2.8,9.3,8.5,9.3,16.1c0,9.6-5.6,16.8-13.4,18.5V68
		c0,0,0.7,0.8,1.5,2.4l15.1,27.9h-4.9l-15.9-29.8H207v29.8h-4.1V31.2H202.8z M225.1,64.8c8.8,0,14.4-6.3,14.4-15.5
		c0-6-3-10.8-7.9-13c-1.9-0.9-4-1.3-9.4-1.3h-15.4v29.8H225.1z"/>
	<path fill="#FFFFFF" d="M277.6,49.3c13.1,0,19.6,10.3,19.6,21.9c0,0.8-0.1,1.7-0.2,2.6h-38.5c0,13.9,9.4,21.9,20.5,21.9
		c5.4,0,11-2.2,14.9-6l2.2,3.4c-4.2,4-10.9,6.6-17.1,6.6c-13.5,0-24.8-9.8-24.8-25.1C254.2,58.3,265.3,49.3,277.6,49.3z M292.9,70
		c-0.5-11.7-7.5-17-15.5-17c-8.8,0-17,5.8-18.7,17H292.9z"/>
	<path fill="#FFFFFF" d="M310.3,50.4h4v8.5c0,2.2-0.4,3.9-0.4,3.9h0.2c1.6-4.5,8.4-13.5,20.4-13.5c12.5,0,15.8,7.4,15.8,18.7v30.4
		h-4v-29c0-8.4-1.1-16.2-11.8-16.2c-10.9,0-20.2,9-20.2,21.3v23.9h-4V50.4z"/>
	<path fill="#FFFFFF" d="M368,54.4h-6.3v-3.6h6.3V37.2h4v13.6h12.6v3.6H372v26.4c0,12.7,7.6,14.3,11.4,14.3c0.7,0,1.4,0,2.2-0.2v3.7
		c-0.4,0.1-1.2,0.2-2.4,0.2c-5,0-15.3-1.8-15.3-17.8L368,54.4L368,54.4z"/>
	<path fill="#FFFFFF" d="M394.9,92.4h5.9v6h-5.9V92.4z"/>
	<path fill="#FFFFFF" d="M416.6,50.4h4v9.1c0,2.2-0.4,3.9-0.4,3.9h0.2c2.4-7.4,7.8-13.4,15.4-13.4c1,0,1.9,0.1,2.8,0.3v4
		c-0.3-0.1-1.2-0.2-2.2-0.2c-11.2,0-15.7,13.7-15.7,23.5v20.7h-4L416.6,50.4L416.6,50.4z"/>
	<path fill="#FFFFFF" d="M468.3,49.3c13.7,0,24.9,10.9,24.9,24.9c0,14.3-11.1,25.4-24.9,25.4s-24.9-11.1-24.9-25.4
		C443.4,60.1,454.5,49.3,468.3,49.3z M468.3,95.7c11.4,0,20.6-9.3,20.6-21.5c0-11.9-9.2-20.9-20.6-20.9s-20.6,9-20.6,20.9
		C447.6,86.3,456.8,95.7,468.3,95.7z"/>
</g>
</svg>
