<svg version="1.1" id="Capa_1" xmlns="http://www.w3.org/2000/svg" x="0" y="0" viewBox="0 0 475.1 511.6" xml:space="preserve"><path d="M464.2 83.9c-7.2-7.2-15.8-10.8-25.7-10.8H402V45.7c0-12.6-4.5-23.3-13.4-32.3-9-8.9-19.7-13.4-32.3-13.4H338c-12.6 0-23.3 4.5-32.3 13.4-8.9 8.9-13.4 19.7-13.4 32.3v27.4H182.7V45.7c0-12.6-4.5-23.3-13.4-32.3C160.4 4.5 149.6 0 137 0h-18.3c-12.6 0-23.3 4.5-32.3 13.4C77.5 22.3 73 33.1 73 45.7v27.4H36.5c-9.9 0-18.5 3.6-25.7 10.8C3.6 91.2 0 99.7 0 109.6v365.5c0 9.9 3.6 18.5 10.9 25.7 7.2 7.2 15.8 10.8 25.7 10.8h402c9.9 0 18.5-3.6 25.7-10.8 7.2-7.2 10.9-15.8 10.9-25.7V109.6c-.1-9.9-3.7-18.4-11-25.7zM328.9 45.7c0-2.7.8-4.9 2.6-6.6 1.7-1.7 3.9-2.6 6.6-2.6h18.3c2.7 0 4.9.9 6.6 2.6 1.7 1.7 2.6 3.9 2.6 6.6v82.2c0 2.7-.9 4.9-2.6 6.6-1.7 1.7-3.9 2.6-6.6 2.6H338c-2.7 0-4.9-.9-6.6-2.6-1.7-1.7-2.6-3.9-2.6-6.6V45.7h.1zm-219.3 0c0-2.7.9-4.9 2.6-6.6 1.7-1.7 3.9-2.6 6.6-2.6H137c2.7 0 4.9.9 6.6 2.6 1.7 1.7 2.6 3.9 2.6 6.6v82.2c0 2.7-.9 4.9-2.6 6.6-1.7 1.7-3.9 2.6-6.6 2.6h-18.3c-2.7 0-4.9-.9-6.6-2.6-1.7-1.7-2.6-3.9-2.6-6.6l.1-82.2zm328.9 429.4h-402V182.7h402v292.4z"/></svg>